<svg width="1440" height="1024" viewBox="0 0 1440 1024" fill="none" xmlns="http://www.w3.org/2000/svg">
<rect width="1440" height="1024" rx="24" fill="white"/>
<g opacity="0.3">
<path d="M1091.93 96H378.171C345.321 96 318.691 122.63 318.691 155.48V869.234C318.691 902.084 345.321 928.714 378.171 928.714H1091.93C1124.78 928.714 1151.41 902.084 1151.41 869.234V155.48C1151.41 122.63 1124.78 96 1091.93 96Z" fill="#DCE3F1"/>
<g filter="url(#filter0_d_802_6308)">
<path d="M992.139 154.29H189.719C173.306 154.29 160 167.605 160 184.03V332.728C160 349.153 173.306 362.468 189.719 362.468H992.139C1008.55 362.468 1021.86 349.153 1021.86 332.728V184.03C1021.86 167.605 1008.55 154.29 992.139 154.29Z" fill="white"/>
</g>
<path d="M570.126 201.874H415.585C405.737 201.874 397.754 209.863 397.754 219.718C397.754 229.573 405.737 237.562 415.585 237.562H570.126C579.974 237.562 587.957 229.573 587.957 219.718C587.957 209.863 579.974 201.874 570.126 201.874Z" fill="#F4F6F8"/>
<path d="M677.115 279.197H415.585C405.737 279.197 397.754 287.186 397.754 297.041C397.754 306.896 405.737 314.885 415.585 314.885H677.115C686.963 314.885 694.947 306.896 694.947 297.041C694.947 287.186 686.963 279.197 677.115 279.197Z" fill="#DCE3F1"/>
<path d="M324.638 173.323H211.626C195.202 173.323 181.887 186.638 181.887 203.063V316.074C181.887 332.499 195.202 345.814 211.626 345.814H324.638C341.062 345.814 354.377 332.499 354.377 316.074V203.063C354.377 186.638 341.062 173.323 324.638 173.323Z" fill="url(#paint0_linear_802_6308)"/>
<path d="M254.582 279.078H266.478L266.608 274.498C266.608 268.479 270.403 266.908 275.768 265.207C281.15 263.676 285.887 260.435 289.263 255.973C292.639 251.511 294.471 246.071 294.481 240.476C294.598 237.06 294.006 233.656 292.74 230.481C291.475 227.305 289.564 224.427 287.128 222.029C284.693 219.63 281.786 217.764 278.592 216.547C275.397 215.33 271.985 214.789 268.571 214.959C264.963 214.88 261.377 215.535 258.03 216.884C254.683 218.233 251.644 220.248 249.099 222.807C246.554 225.365 244.555 228.414 243.224 231.768C241.892 235.122 241.256 238.712 241.353 242.32H253.654C253.607 240.328 253.958 238.347 254.687 236.492C255.416 234.638 256.508 232.948 257.898 231.521C259.289 230.094 260.95 228.959 262.785 228.182C264.619 227.405 266.591 227.003 268.583 226.998C270.38 226.894 272.178 227.177 273.855 227.83C275.533 228.483 277.05 229.489 278.304 230.78C279.557 232.071 280.519 233.617 281.122 235.312C281.725 237.008 281.956 238.814 281.8 240.607C281.72 243.509 280.711 246.308 278.921 248.593C277.13 250.879 274.653 252.528 271.855 253.3L267.536 255.013C263.309 256.031 259.618 258.6 257.194 262.211C254.771 265.822 253.792 270.211 254.451 274.51L254.582 279.078ZM260.47 307.355C261.635 307.396 262.796 307.203 263.886 306.788C264.975 306.373 265.97 305.744 266.811 304.937C267.653 304.131 268.325 303.164 268.786 302.094C269.248 301.024 269.49 299.872 269.499 298.706C269.489 297.542 269.245 296.391 268.783 295.322C268.321 294.253 267.649 293.288 266.807 292.483C265.966 291.678 264.971 291.05 263.883 290.635C262.794 290.221 261.634 290.028 260.47 290.07C259.306 290.028 258.146 290.221 257.058 290.635C255.969 291.05 254.975 291.678 254.133 292.483C253.292 293.288 252.62 294.253 252.158 295.322C251.695 296.391 251.452 297.542 251.441 298.706C251.45 299.872 251.692 301.024 252.154 302.094C252.616 303.164 253.287 304.131 254.129 304.937C254.971 305.744 255.966 306.373 257.055 306.788C258.144 307.203 259.305 307.396 260.47 307.355Z" fill="white"/>
<g filter="url(#filter1_d_802_6308)">
<path d="M1250.28 408.268H447.861C439.979 408.268 432.419 411.401 426.846 416.978C421.272 422.555 418.141 430.12 418.141 438.007V586.706C418.141 594.594 421.272 602.158 426.846 607.735C432.419 613.313 439.979 616.446 447.861 616.446H1250.28C1258.16 616.446 1265.72 613.313 1271.3 607.735C1276.87 602.158 1280 594.594 1280 586.706V438.007C1280 430.12 1276.87 422.555 1271.3 416.978C1265.72 411.401 1258.16 408.268 1250.28 408.268V408.268Z" fill="white"/>
</g>
<path d="M869.874 455.851H1024.41C1034.26 455.851 1042.25 463.84 1042.25 473.694C1042.25 483.549 1034.26 491.538 1024.41 491.538H869.874C860.026 491.538 852.043 483.549 852.043 473.694C852.043 463.84 860.026 455.851 869.874 455.851Z" fill="#F4F6F8"/>
<path d="M762.885 533.174H1024.41C1034.26 533.174 1042.25 541.163 1042.25 551.018C1042.25 560.873 1034.26 568.862 1024.41 568.862H762.885C753.037 568.862 745.053 560.873 745.053 551.018C745.053 541.163 753.037 533.174 762.885 533.174Z" fill="#DCE3F1"/>
<path d="M1232.45 426.111H1119.51C1103.1 426.111 1089.79 439.426 1089.79 455.851V568.862C1089.79 585.287 1103.1 598.602 1119.51 598.602H1232.45C1248.86 598.602 1262.17 585.287 1262.17 568.862V455.851C1262.17 439.426 1248.86 426.111 1232.45 426.111Z" fill="url(#paint1_linear_802_6308)"/>
<path d="M1162.44 531.865H1174.33L1174.46 527.285C1174.46 521.266 1178.25 519.696 1183.61 517.995C1188.99 516.464 1193.72 513.222 1197.1 508.76C1200.47 504.298 1202.3 498.858 1202.31 493.263C1202.43 489.847 1201.84 486.443 1200.57 483.268C1199.31 480.093 1197.4 477.215 1194.96 474.816C1192.53 472.418 1189.63 470.551 1186.43 469.334C1183.24 468.117 1179.83 467.576 1176.42 467.746C1172.81 467.668 1169.23 468.323 1165.89 469.672C1162.54 471.021 1159.5 473.036 1156.96 475.594C1154.42 478.153 1152.42 481.201 1151.09 484.556C1149.76 487.91 1149.12 491.499 1149.22 495.107H1161.51C1161.47 493.115 1161.82 491.134 1162.55 489.28C1163.27 487.425 1164.36 485.735 1165.75 484.308C1167.14 482.881 1168.8 481.746 1170.64 480.969C1172.47 480.193 1174.44 479.79 1176.43 479.785C1178.23 479.681 1180.02 479.965 1181.7 480.617C1183.38 481.27 1184.89 482.276 1186.15 483.567C1187.4 484.858 1188.36 486.404 1188.96 488.1C1189.56 489.795 1189.8 491.601 1189.64 493.394C1189.56 496.296 1188.55 499.096 1186.76 501.381C1184.97 503.666 1182.5 505.316 1179.7 506.087L1175.39 507.8C1171.16 508.819 1167.47 511.388 1165.05 514.999C1162.63 518.61 1161.65 522.999 1162.31 527.297L1162.44 531.865ZM1168.32 560.142C1169.49 560.183 1170.65 559.991 1171.74 559.576C1172.83 559.16 1173.82 558.531 1174.66 557.725C1175.5 556.919 1176.17 555.952 1176.63 554.881C1177.1 553.811 1177.34 552.659 1177.35 551.494C1177.34 550.329 1177.09 549.178 1176.63 548.109C1176.17 547.041 1175.5 546.075 1174.66 545.27C1173.82 544.465 1172.82 543.837 1171.73 543.422C1170.65 543.008 1169.49 542.816 1168.32 542.857C1167.16 542.816 1166 543.008 1164.91 543.422C1163.83 543.837 1162.83 544.465 1161.99 545.27C1161.15 546.075 1160.48 547.041 1160.02 548.109C1159.56 549.178 1159.31 550.329 1159.3 551.494C1159.31 552.659 1159.55 553.811 1160.01 554.881C1160.48 555.952 1161.15 556.919 1161.99 557.725C1162.83 558.531 1163.82 559.16 1164.91 559.576C1166 559.991 1167.16 560.183 1168.32 560.142Z" fill="white"/>
<g filter="url(#filter2_d_802_6308)">
<path d="M189.719 666.409H992.139C1000.02 666.409 1007.58 669.542 1013.15 675.12C1018.73 680.697 1021.86 688.261 1021.86 696.149V844.848C1021.86 852.735 1018.73 860.3 1013.15 865.877C1007.58 871.454 1000.02 874.588 992.139 874.588H189.719C181.837 874.588 174.278 871.454 168.705 865.877C163.131 860.3 160 852.735 160 844.848V696.149C160 688.261 163.131 680.697 168.705 675.12C174.278 669.542 181.837 666.409 189.719 666.409V666.409Z" fill="white"/>
</g>
<path d="M570.126 713.993H415.585C405.737 713.993 397.754 721.982 397.754 731.837C397.754 741.691 405.737 749.68 415.585 749.68H570.126C579.974 749.68 587.957 741.691 587.957 731.837C587.957 721.982 579.974 713.993 570.126 713.993Z" fill="#F4F6F8"/>
<path d="M677.115 791.316H415.585C405.737 791.316 397.754 799.305 397.754 809.16C397.754 819.015 405.737 827.004 415.585 827.004H677.115C686.963 827.004 694.947 819.015 694.947 809.16C694.947 799.305 686.963 791.316 677.115 791.316Z" fill="#DCE3F1"/>
<path d="M320.486 684.253H207.553C191.14 684.253 177.834 697.568 177.834 713.993V827.004C177.834 843.429 191.14 856.744 207.553 856.744H320.486C336.9 856.744 350.206 843.429 350.206 827.004V713.993C350.206 697.568 336.9 684.253 320.486 684.253Z" fill="url(#paint2_linear_802_6308)"/>
<path d="M250.479 790.007H262.367L262.497 785.427C262.497 779.408 266.29 777.838 271.651 776.137C277.029 774.606 281.763 771.364 285.136 766.902C288.51 762.44 290.34 757 290.35 751.405C290.468 747.989 289.876 744.586 288.611 741.41C287.346 738.235 285.437 735.357 283.003 732.958C280.569 730.56 277.664 728.693 274.472 727.476C271.28 726.259 267.87 725.718 264.459 725.888C260.853 725.81 257.269 726.465 253.925 727.814C250.58 729.163 247.543 731.178 245 733.736C242.457 736.295 240.459 739.343 239.129 742.698C237.798 746.052 237.162 749.642 237.26 753.249H249.552C249.505 751.257 249.856 749.276 250.584 747.422C251.313 745.567 252.404 743.877 253.793 742.45C255.182 741.023 256.843 739.888 258.676 739.111C260.51 738.335 262.48 737.932 264.471 737.927C266.266 737.823 268.063 738.107 269.739 738.759C271.415 739.412 272.931 740.418 274.184 741.709C275.437 743 276.398 744.546 277.001 746.242C277.604 747.937 277.835 749.743 277.678 751.536C277.599 754.438 276.59 757.238 274.801 759.523C273.012 761.808 270.537 763.458 267.74 764.229L263.425 765.942C259.2 766.961 255.511 769.53 253.089 773.141C250.668 776.752 249.689 781.141 250.348 785.439L250.479 790.007ZM256.363 818.284C257.527 818.325 258.688 818.133 259.776 817.718C260.865 817.302 261.859 816.673 262.7 815.867C263.541 815.061 264.212 814.094 264.674 813.023C265.135 811.953 265.377 810.801 265.386 809.636C265.376 808.471 265.132 807.32 264.67 806.252C264.208 805.183 263.537 804.217 262.696 803.412C261.855 802.607 260.861 801.979 259.774 801.565C258.686 801.15 257.526 800.958 256.363 800.999C255.2 800.958 254.041 801.15 252.953 801.565C251.865 801.979 250.872 802.607 250.031 803.412C249.19 804.217 248.518 805.183 248.056 806.252C247.594 807.32 247.351 808.471 247.34 809.636C247.349 810.801 247.592 811.953 248.053 813.023C248.514 814.094 249.185 815.061 250.027 815.867C250.868 816.673 251.862 817.302 252.95 817.718C254.039 818.133 255.199 818.325 256.363 818.284Z" fill="white"/>
</g>
<defs>
<filter id="filter0_d_802_6308" x="125.141" y="136.86" width="931.578" height="277.897" filterUnits="userSpaceOnUse" color-interpolation-filters="sRGB">
<feFlood flood-opacity="0" result="BackgroundImageFix"/>
<feColorMatrix in="SourceAlpha" type="matrix" values="0 0 0 0 0 0 0 0 0 0 0 0 0 0 0 0 0 0 127 0" result="hardAlpha"/>
<feOffset dy="17.4296"/>
<feGaussianBlur stdDeviation="17.4296"/>
<feColorMatrix type="matrix" values="0 0 0 0 0 0 0 0 0 0 0 0 0 0 0 0 0 0 0.161 0"/>
<feBlend mode="normal" in2="BackgroundImageFix" result="effect1_dropShadow_802_6308"/>
<feBlend mode="normal" in="SourceGraphic" in2="effect1_dropShadow_802_6308" result="shape"/>
</filter>
<filter id="filter1_d_802_6308" x="383.281" y="390.838" width="931.578" height="277.897" filterUnits="userSpaceOnUse" color-interpolation-filters="sRGB">
<feFlood flood-opacity="0" result="BackgroundImageFix"/>
<feColorMatrix in="SourceAlpha" type="matrix" values="0 0 0 0 0 0 0 0 0 0 0 0 0 0 0 0 0 0 127 0" result="hardAlpha"/>
<feOffset dy="17.4296"/>
<feGaussianBlur stdDeviation="17.4296"/>
<feColorMatrix type="matrix" values="0 0 0 0 0 0 0 0 0 0 0 0 0 0 0 0 0 0 0.161 0"/>
<feBlend mode="normal" in2="BackgroundImageFix" result="effect1_dropShadow_802_6308"/>
<feBlend mode="normal" in="SourceGraphic" in2="effect1_dropShadow_802_6308" result="shape"/>
</filter>
<filter id="filter2_d_802_6308" x="125.141" y="648.98" width="931.578" height="277.897" filterUnits="userSpaceOnUse" color-interpolation-filters="sRGB">
<feFlood flood-opacity="0" result="BackgroundImageFix"/>
<feColorMatrix in="SourceAlpha" type="matrix" values="0 0 0 0 0 0 0 0 0 0 0 0 0 0 0 0 0 0 127 0" result="hardAlpha"/>
<feOffset dy="17.4296"/>
<feGaussianBlur stdDeviation="17.4296"/>
<feColorMatrix type="matrix" values="0 0 0 0 0 0 0 0 0 0 0 0 0 0 0 0 0 0 0.161 0"/>
<feBlend mode="normal" in2="BackgroundImageFix" result="effect1_dropShadow_802_6308"/>
<feBlend mode="normal" in="SourceGraphic" in2="effect1_dropShadow_802_6308" result="shape"/>
</filter>
<linearGradient id="paint0_linear_802_6308" x1="156.462" y1="173.323" x2="362.585" y2="184.92" gradientUnits="userSpaceOnUse">
<stop stop-color="#0091FF"/>
<stop offset="0.9999" stop-color="#34A9F6"/>
<stop offset="1" stop-color="#5FAEE2"/>
</linearGradient>
<linearGradient id="paint1_linear_802_6308" x1="1064.39" y1="426.111" x2="1270.37" y2="437.692" gradientUnits="userSpaceOnUse">
<stop stop-color="#0091FF"/>
<stop offset="0.9999" stop-color="#34A9F6"/>
<stop offset="1" stop-color="#5FAEE2"/>
</linearGradient>
<linearGradient id="paint2_linear_802_6308" x1="152.427" y1="684.253" x2="358.409" y2="695.834" gradientUnits="userSpaceOnUse">
<stop stop-color="#0091FF"/>
<stop offset="0.9999" stop-color="#34A9F6"/>
<stop offset="1" stop-color="#5FAEE2"/>
</linearGradient>
</defs>
</svg>
