<svg width="1440" height="1024" viewBox="0 0 1440 1024" fill="none" xmlns="http://www.w3.org/2000/svg">
<g clip-path="url(#clip0_802_6209)">
<rect width="1440" height="1024" rx="24" fill="black"/>
<g opacity="0.2">
<path d="M1091.93 96H378.171C345.321 96 318.691 122.63 318.691 155.48V869.234C318.691 902.084 345.321 928.714 378.171 928.714H1091.93C1124.78 928.714 1151.41 902.084 1151.41 869.234V155.48C1151.41 122.63 1124.78 96 1091.93 96Z" fill="#0F1117"/>
<g filter="url(#filter0_d_802_6209)">
<path d="M992.139 154.29H189.719C173.306 154.29 160 167.605 160 184.03V332.729C160 349.153 173.306 362.468 189.719 362.468H992.139C1008.55 362.468 1021.86 349.153 1021.86 332.729V184.03C1021.86 167.605 1008.55 154.29 992.139 154.29Z" fill="#212734"/>
</g>
<path d="M570.126 201.874H415.585C405.737 201.874 397.754 209.863 397.754 219.718C397.754 229.572 405.737 237.561 415.585 237.561H570.126C579.974 237.561 587.957 229.572 587.957 219.718C587.957 209.863 579.974 201.874 570.126 201.874Z" fill="url(#paint0_linear_802_6209)" fill-opacity="0.7"/>
<path d="M677.115 279.197H415.585C405.737 279.197 397.754 287.186 397.754 297.041C397.754 306.896 405.737 314.885 415.585 314.885H677.115C686.963 314.885 694.947 306.896 694.947 297.041C694.947 287.186 686.963 279.197 677.115 279.197Z" fill="#3F4354"/>
<path d="M324.642 173.323H211.63C195.206 173.323 181.891 186.638 181.891 203.063V316.074C181.891 332.499 195.206 345.814 211.63 345.814H324.642C341.066 345.814 354.381 332.499 354.381 316.074V203.063C354.381 186.638 341.066 173.323 324.642 173.323Z" fill="url(#paint1_linear_802_6209)"/>
<path d="M254.586 279.078H266.482L266.612 274.498C266.612 268.479 270.407 266.909 275.772 265.207C281.154 263.676 285.891 260.435 289.267 255.973C292.643 251.511 294.475 246.071 294.485 240.476C294.602 237.06 294.01 233.656 292.744 230.481C291.479 227.306 289.568 224.428 287.132 222.029C284.697 219.63 281.79 217.764 278.596 216.547C275.401 215.33 271.989 214.789 268.575 214.959C264.967 214.88 261.381 215.535 258.034 216.884C254.687 218.233 251.648 220.248 249.103 222.807C246.558 225.365 244.559 228.414 243.228 231.768C241.896 235.122 241.26 238.712 241.357 242.32H253.658C253.611 240.328 253.962 238.347 254.691 236.492C255.42 234.638 256.512 232.948 257.902 231.521C259.293 230.094 260.954 228.959 262.789 228.182C264.623 227.405 266.595 227.003 268.587 226.998C270.384 226.894 272.182 227.177 273.859 227.83C275.537 228.483 277.054 229.489 278.307 230.78C279.561 232.071 280.523 233.617 281.126 235.312C281.729 237.008 281.96 238.814 281.803 240.607C281.724 243.509 280.715 246.308 278.925 248.594C277.134 250.879 274.657 252.528 271.858 253.3L267.54 255.013C263.313 256.031 259.621 258.6 257.198 262.211C254.775 265.822 253.796 270.212 254.455 274.51L254.586 279.078ZM260.474 307.355C261.639 307.396 262.8 307.203 263.889 306.788C264.979 306.373 265.973 305.744 266.815 304.937C267.657 304.131 268.329 303.164 268.79 302.094C269.252 301.024 269.494 299.872 269.503 298.706C269.493 297.542 269.249 296.391 268.787 295.322C268.324 294.253 267.653 293.288 266.811 292.483C265.969 291.678 264.975 291.05 263.887 290.635C262.798 290.221 261.638 290.029 260.474 290.07C259.31 290.029 258.15 290.221 257.062 290.635C255.973 291.05 254.979 291.678 254.137 292.483C253.296 293.288 252.624 294.253 252.161 295.322C251.699 296.391 251.456 297.542 251.445 298.706C251.454 299.872 251.696 301.024 252.158 302.094C252.62 303.164 253.291 304.131 254.133 304.937C254.975 305.744 255.97 306.373 257.059 306.788C258.148 307.203 259.309 307.396 260.474 307.355Z" fill="#212734"/>
<g filter="url(#filter1_d_802_6209)">
<path d="M1250.28 408.268H447.861C439.979 408.268 432.419 411.401 426.846 416.978C421.272 422.556 418.141 430.12 418.141 438.007V586.706C418.141 594.594 421.272 602.158 426.846 607.736C432.419 613.313 439.979 616.446 447.861 616.446H1250.28C1258.16 616.446 1265.72 613.313 1271.3 607.736C1276.87 602.158 1280 594.594 1280 586.706V438.007C1280 430.12 1276.87 422.556 1271.3 416.978C1265.72 411.401 1258.16 408.268 1250.28 408.268V408.268Z" fill="#212734"/>
</g>
<path d="M869.874 455.851H1024.41C1034.26 455.851 1042.25 463.84 1042.25 473.695C1042.25 483.55 1034.26 491.539 1024.41 491.539H869.874C860.026 491.539 852.043 483.55 852.043 473.695C852.043 463.84 860.026 455.851 869.874 455.851Z" fill="url(#paint2_linear_802_6209)" fill-opacity="0.7"/>
<path d="M762.885 533.175H1024.41C1034.26 533.175 1042.25 541.164 1042.25 551.019C1042.25 560.873 1034.26 568.862 1024.41 568.862H762.885C753.037 568.862 745.053 560.873 745.053 551.019C745.053 541.164 753.037 533.175 762.885 533.175Z" fill="#3F4354"/>
<path d="M1232.45 426.111H1119.52C1103.1 426.111 1089.8 439.426 1089.8 455.851V568.862C1089.8 585.287 1103.1 598.602 1119.52 598.602H1232.45C1248.86 598.602 1262.17 585.287 1262.17 568.862V455.851C1262.17 439.426 1248.86 426.111 1232.45 426.111Z" fill="url(#paint3_linear_802_6209)"/>
<path d="M1162.44 531.866H1174.33L1174.46 527.286C1174.46 521.267 1178.25 519.697 1183.61 517.995C1188.99 516.465 1193.73 513.223 1197.1 508.761C1200.47 504.299 1202.3 498.859 1202.31 493.264C1202.43 489.848 1201.84 486.444 1200.57 483.269C1199.31 480.094 1197.4 477.216 1194.97 474.817C1192.53 472.419 1189.63 470.552 1186.44 469.335C1183.24 468.118 1179.83 467.577 1176.42 467.747C1172.82 467.669 1169.23 468.324 1165.89 469.673C1162.54 471.022 1159.51 473.036 1156.96 475.595C1154.42 478.153 1152.42 481.202 1151.09 484.556C1149.76 487.911 1149.13 491.5 1149.22 495.108H1161.51C1161.47 493.116 1161.82 491.135 1162.55 489.28C1163.28 487.426 1164.37 485.736 1165.76 484.309C1167.15 482.882 1168.81 481.747 1170.64 480.97C1172.47 480.193 1174.44 479.791 1176.43 479.786C1178.23 479.682 1180.03 479.966 1181.7 480.618C1183.38 481.271 1184.89 482.277 1186.15 483.568C1187.4 484.859 1188.36 486.405 1188.96 488.101C1189.57 489.796 1189.8 491.602 1189.64 493.395C1189.56 496.297 1188.55 499.096 1186.76 501.382C1184.97 503.667 1182.5 505.316 1179.7 506.088L1175.39 507.801C1171.16 508.819 1167.47 511.389 1165.05 514.999C1162.63 518.61 1161.65 523 1162.31 527.298L1162.44 531.866ZM1168.33 560.143C1169.49 560.184 1170.65 559.991 1171.74 559.576C1172.83 559.161 1173.82 558.532 1174.66 557.726C1175.5 556.919 1176.18 555.952 1176.64 554.882C1177.1 553.812 1177.34 552.66 1177.35 551.494C1177.34 550.33 1177.1 549.179 1176.63 548.11C1176.17 547.041 1175.5 546.076 1174.66 545.271C1173.82 544.466 1172.82 543.838 1171.74 543.423C1170.65 543.009 1169.49 542.817 1168.33 542.858C1167.16 542.817 1166 543.009 1164.92 543.423C1163.83 543.838 1162.83 544.466 1161.99 545.271C1161.15 546.076 1160.48 547.041 1160.02 548.11C1159.56 549.179 1159.31 550.33 1159.3 551.494C1159.31 552.66 1159.55 553.812 1160.02 554.882C1160.48 555.952 1161.15 556.919 1161.99 557.726C1162.83 558.532 1163.82 559.161 1164.91 559.576C1166 559.991 1167.16 560.184 1168.33 560.143Z" fill="#212734"/>
<g filter="url(#filter2_d_802_6209)">
<path d="M189.719 666.409H992.139C1000.02 666.409 1007.58 669.542 1013.15 675.12C1018.73 680.697 1021.86 688.261 1021.86 696.149V844.848C1021.86 852.735 1018.73 860.299 1013.15 865.877C1007.58 871.454 1000.02 874.587 992.139 874.587H189.719C181.837 874.587 174.278 871.454 168.705 865.877C163.131 860.299 160 852.735 160 844.848V696.149C160 688.261 163.131 680.697 168.705 675.12C174.278 669.542 181.837 666.409 189.719 666.409V666.409Z" fill="#212734"/>
</g>
<path d="M570.126 713.993H415.585C405.737 713.993 397.754 721.982 397.754 731.837C397.754 741.692 405.737 749.681 415.585 749.681H570.126C579.974 749.681 587.957 741.692 587.957 731.837C587.957 721.982 579.974 713.993 570.126 713.993Z" fill="url(#paint4_linear_802_6209)" fill-opacity="0.7"/>
<path d="M677.115 791.317H415.585C405.737 791.317 397.754 799.306 397.754 809.161C397.754 819.016 405.737 827.005 415.585 827.005H677.115C686.963 827.005 694.947 819.016 694.947 809.161C694.947 799.306 686.963 791.317 677.115 791.317Z" fill="#3F4354"/>
<path d="M320.485 684.253H207.551C191.138 684.253 177.832 697.568 177.832 713.992V827.003C177.832 843.428 191.138 856.743 207.551 856.743H320.485C336.898 856.743 350.204 843.428 350.204 827.003V713.992C350.204 697.568 336.898 684.253 320.485 684.253Z" fill="url(#paint5_linear_802_6209)"/>
<path d="M250.475 790.007H262.363L262.493 785.427C262.493 779.408 266.286 777.838 271.647 776.137C277.025 774.606 281.759 771.364 285.132 766.902C288.506 762.44 290.336 757 290.346 751.405C290.464 747.989 289.872 744.585 288.607 741.41C287.342 738.235 285.433 735.357 282.999 732.958C280.565 730.56 277.66 728.693 274.468 727.476C271.276 726.259 267.867 725.718 264.455 725.888C260.849 725.81 257.266 726.465 253.921 727.814C250.576 729.163 247.54 731.178 244.996 733.736C242.453 736.295 240.455 739.343 239.125 742.698C237.794 746.052 237.158 749.641 237.256 753.249H249.548C249.501 751.257 249.852 749.276 250.58 747.422C251.309 745.567 252.4 743.877 253.789 742.45C255.179 741.023 256.839 739.888 258.672 739.111C260.506 738.335 262.476 737.932 264.467 737.927C266.262 737.823 268.059 738.107 269.735 738.759C271.411 739.412 272.927 740.418 274.18 741.709C275.433 743 276.394 744.546 276.997 746.242C277.6 747.937 277.831 749.743 277.674 751.536C277.595 754.438 276.586 757.238 274.797 759.523C273.008 761.808 270.533 763.458 267.736 764.229L263.421 765.942C259.196 766.961 255.507 769.53 253.086 773.141C250.664 776.751 249.685 781.141 250.344 785.439L250.475 790.007ZM256.359 818.284C257.523 818.325 258.684 818.133 259.772 817.717C260.861 817.302 261.855 816.673 262.696 815.867C263.537 815.06 264.208 814.094 264.67 813.023C265.131 811.953 265.373 810.801 265.382 809.636C265.372 808.471 265.128 807.32 264.666 806.251C264.204 805.183 263.533 804.217 262.692 803.412C261.851 802.607 260.857 801.979 259.77 801.564C258.682 801.15 257.522 800.958 256.359 800.999C255.196 800.958 254.037 801.15 252.949 801.564C251.861 801.979 250.868 802.607 250.027 803.412C249.186 804.217 248.514 805.183 248.052 806.251C247.59 807.32 247.347 808.471 247.337 809.636C247.345 810.801 247.588 811.953 248.049 813.023C248.51 814.094 249.181 815.06 250.023 815.867C250.864 816.673 251.858 817.302 252.946 817.717C254.035 818.133 255.195 818.325 256.359 818.284Z" fill="#212734"/>
</g>
<g opacity="0.5" filter="url(#filter3_f_802_6209)">
<ellipse cx="69" cy="278" rx="319" ry="460" fill="#1A1A34"/>
</g>
<g opacity="0.5" filter="url(#filter4_f_802_6209)">
<ellipse cx="1202.5" cy="848" rx="275.5" ry="221" fill="#1A1A34"/>
</g>
</g>
<defs>
<filter id="filter0_d_802_6209" x="122.528" y="135.554" width="936.804" height="283.123" filterUnits="userSpaceOnUse" color-interpolation-filters="sRGB">
<feFlood flood-opacity="0" result="BackgroundImageFix"/>
<feColorMatrix in="SourceAlpha" type="matrix" values="0 0 0 0 0 0 0 0 0 0 0 0 0 0 0 0 0 0 127 0" result="hardAlpha"/>
<feOffset dy="18.7361"/>
<feGaussianBlur stdDeviation="18.7361"/>
<feColorMatrix type="matrix" values="0 0 0 0 0 0 0 0 0 0 0 0 0 0 0 0 0 0 0.161 0"/>
<feBlend mode="normal" in2="BackgroundImageFix" result="effect1_dropShadow_802_6209"/>
<feBlend mode="normal" in="SourceGraphic" in2="effect1_dropShadow_802_6209" result="shape"/>
</filter>
<filter id="filter1_d_802_6209" x="380.669" y="389.532" width="936.804" height="283.123" filterUnits="userSpaceOnUse" color-interpolation-filters="sRGB">
<feFlood flood-opacity="0" result="BackgroundImageFix"/>
<feColorMatrix in="SourceAlpha" type="matrix" values="0 0 0 0 0 0 0 0 0 0 0 0 0 0 0 0 0 0 127 0" result="hardAlpha"/>
<feOffset dy="18.7361"/>
<feGaussianBlur stdDeviation="18.7361"/>
<feColorMatrix type="matrix" values="0 0 0 0 0 0 0 0 0 0 0 0 0 0 0 0 0 0 0.161 0"/>
<feBlend mode="normal" in2="BackgroundImageFix" result="effect1_dropShadow_802_6209"/>
<feBlend mode="normal" in="SourceGraphic" in2="effect1_dropShadow_802_6209" result="shape"/>
</filter>
<filter id="filter2_d_802_6209" x="122.528" y="647.673" width="936.804" height="283.123" filterUnits="userSpaceOnUse" color-interpolation-filters="sRGB">
<feFlood flood-opacity="0" result="BackgroundImageFix"/>
<feColorMatrix in="SourceAlpha" type="matrix" values="0 0 0 0 0 0 0 0 0 0 0 0 0 0 0 0 0 0 127 0" result="hardAlpha"/>
<feOffset dy="18.7361"/>
<feGaussianBlur stdDeviation="18.7361"/>
<feColorMatrix type="matrix" values="0 0 0 0 0 0 0 0 0 0 0 0 0 0 0 0 0 0 0.161 0"/>
<feBlend mode="normal" in2="BackgroundImageFix" result="effect1_dropShadow_802_6209"/>
<feBlend mode="normal" in="SourceGraphic" in2="effect1_dropShadow_802_6209" result="shape"/>
</filter>
<filter id="filter3_f_802_6209" x="-607" y="-539" width="1352" height="1634" filterUnits="userSpaceOnUse" color-interpolation-filters="sRGB">
<feFlood flood-opacity="0" result="BackgroundImageFix"/>
<feBlend mode="normal" in="SourceGraphic" in2="BackgroundImageFix" result="shape"/>
<feGaussianBlur stdDeviation="178.5" result="effect1_foregroundBlur_802_6209"/>
</filter>
<filter id="filter4_f_802_6209" x="570" y="270" width="1265" height="1156" filterUnits="userSpaceOnUse" color-interpolation-filters="sRGB">
<feFlood flood-opacity="0" result="BackgroundImageFix"/>
<feBlend mode="normal" in="SourceGraphic" in2="BackgroundImageFix" result="shape"/>
<feGaussianBlur stdDeviation="178.5" result="effect1_foregroundBlur_802_6209"/>
</filter>
<linearGradient id="paint0_linear_802_6209" x1="569.086" y1="208.005" x2="423.347" y2="247.649" gradientUnits="userSpaceOnUse">
<stop stop-color="#171C23" stop-opacity="0.58"/>
<stop offset="1" stop-color="#13161C"/>
</linearGradient>
<linearGradient id="paint1_linear_802_6209" x1="156.466" y1="173.323" x2="362.589" y2="184.92" gradientUnits="userSpaceOnUse">
<stop stop-color="#0091FF"/>
<stop offset="0.9999" stop-color="#34A9F6"/>
<stop offset="1" stop-color="#5FAEE2"/>
</linearGradient>
<linearGradient id="paint2_linear_802_6209" x1="870.914" y1="461.982" x2="1016.65" y2="501.626" gradientUnits="userSpaceOnUse">
<stop stop-color="#171C23" stop-opacity="0.58"/>
<stop offset="1" stop-color="#13161C"/>
</linearGradient>
<linearGradient id="paint3_linear_802_6209" x1="1064.39" y1="426.111" x2="1270.37" y2="437.692" gradientUnits="userSpaceOnUse">
<stop stop-color="#0091FF"/>
<stop offset="0.9999" stop-color="#34A9F6"/>
<stop offset="1" stop-color="#5FAEE2"/>
</linearGradient>
<linearGradient id="paint4_linear_802_6209" x1="569.086" y1="720.124" x2="423.347" y2="759.769" gradientUnits="userSpaceOnUse">
<stop stop-color="#171C23" stop-opacity="0.58"/>
<stop offset="1" stop-color="#13161C"/>
</linearGradient>
<linearGradient id="paint5_linear_802_6209" x1="152.425" y1="684.253" x2="358.407" y2="695.833" gradientUnits="userSpaceOnUse">
<stop stop-color="#0091FF"/>
<stop offset="0.9999" stop-color="#34A9F6"/>
<stop offset="1" stop-color="#5FAEE2"/>
</linearGradient>
<clipPath id="clip0_802_6209">
<rect width="1440" height="1024" rx="24" fill="white"/>
</clipPath>
</defs>
</svg>
