<?xml version="1.0" encoding="utf-8"?>
<!-- Generator: Adobe Illustrator 26.0.1, SVG Export Plug-In . SVG Version: 6.00 Build 0)  -->
<svg version="1.1" id="Layer_1" xmlns="http://www.w3.org/2000/svg" xmlns:xlink="http://www.w3.org/1999/xlink" x="0px" y="0px"
	 viewBox="0 0 82 69.7" style="enable-background:new 0 0 82 69.7;" xml:space="preserve">
<style type="text/css">
	.st0{fill:url(#SVGID_1_);}
	.st1{fill:url(#SVGID_00000070796709072130719660000011432928645281449143_);}
	.st2{fill:url(#SVGID_00000175307685449774155200000015776679185912535694_);}
	.st3{fill:url(#SVGID_00000071542289304846875760000010230044858118066110_);}
	.st4{fill:url(#SVGID_00000159432947692118015560000015974802244481074851_);}
	.st5{fill:url(#SVGID_00000052796278281332565250000003273155037566082492_);}
	.st6{fill:url(#SVGID_00000011744172297530213060000011398949601646604419_);}
</style>
<g id="BACKGROUND">
</g>
<g>
	<g>
		
			<linearGradient id="SVGID_1_" gradientUnits="userSpaceOnUse" x1="36.1623" y1="22.2643" x2="2.7039" y2="88.6413" gradientTransform="matrix(1 0 0 -1 0 71)">
			<stop  offset="0" style="stop-color:#2E8FFF"/>
			<stop  offset="1" style="stop-color:#3C5BBA"/>
		</linearGradient>
		<path class="st0" d="M37.4,27.3H23.3c-1.6,0-2.9,1.3-2.9,2.9v14.1c0,1.6,1.3,2.9,2.9,2.9h14.1c1.6,0,2.9-1.3,2.9-2.9V30.2
			C40.3,28.6,39,27.3,37.4,27.3z"/>
		
			<linearGradient id="SVGID_00000103224651137331730470000007581136528744358801_" gradientUnits="userSpaceOnUse" x1="43.2584" y1="25.8414" x2="9.7999" y2="92.2187" gradientTransform="matrix(1 0 0 -1 0 71)">
			<stop  offset="0" style="stop-color:#2E8FFF"/>
			<stop  offset="1" style="stop-color:#3C5BBA"/>
		</linearGradient>
		<path style="fill:url(#SVGID_00000103224651137331730470000007581136528744358801_);" d="M50.9,50.6h-5.8c-0.6,0-1.2,0.5-1.2,1.2
			v5.7c0,0.6,0.5,1.2,1.2,1.2h5.8c0.6,0,1.2-0.5,1.2-1.2v-5.8C52.1,51.1,51.6,50.6,50.9,50.6z"/>
		
			<linearGradient id="SVGID_00000088128258541193902010000015920812359292338604_" gradientUnits="userSpaceOnUse" x1="61.7359" y1="35.155" x2="28.2775" y2="101.5322" gradientTransform="matrix(1 0 0 -1 0 71)">
			<stop  offset="0" style="stop-color:#2E8FFF"/>
			<stop  offset="1" style="stop-color:#3C5BBA"/>
		</linearGradient>
		<path style="fill:url(#SVGID_00000088128258541193902010000015920812359292338604_);" d="M58,0H41.2c-1.9,0-3.4,1.5-3.4,3.4v16.9
			c0,1.9,1.5,3.4,3.4,3.4h16.9c1.9,0,3.4-1.5,3.4-3.4V3.4C61.4,1.5,59.9,0,58,0z"/>
	</g>
	<g>
		<g>
			
				<linearGradient id="SVGID_00000113352272450243288590000011317773283457320333_" gradientUnits="userSpaceOnUse" x1="5.8227" y1="29.7851" x2="5.8227" y2="60.6867" gradientTransform="matrix(1 0 0 -1 0 71)">
				<stop  offset="0" style="stop-color:#7EB7F7"/>
				<stop  offset="1" style="stop-color:#2E8FFF"/>
			</linearGradient>
			<path style="fill:url(#SVGID_00000113352272450243288590000011317773283457320333_);" d="M9.6,13c0-0.8,0.5-1.5,1.1-1.9
				c0.6-0.3,1-0.8,1-1.5V5.5c0-1.1-1-1.9-2-1.7c-4.1,0.9-7.2,4.6-7.2,9.1V31c0,0.7-0.4,1.2-0.9,1.5c-1,0.7-1.7,1.8-1.7,3.1v2.3
				c0,1.2,0.7,2.3,1.7,2.9c0.5,0.3,0.9,0.8,0.9,1.7v18.1c0,4.4,3.1,8.1,7.2,9.1c1.1,0.2,2-0.6,2-1.7v-4.1c0-0.6-0.4-1.2-1-1.5
				c-0.7-0.3-1.1-1.1-1.1-1.9V42.6c0-2.1-0.7-4.1-2-5.7c1.2-1.6,2-3.5,2-5.7V13z"/>
			
				<linearGradient id="SVGID_00000098925987832892611870000017160774970843739810_" gradientUnits="userSpaceOnUse" x1="5.8227" y1="13.9414" x2="5.8227" y2="49.6837" gradientTransform="matrix(1 0 0 -1 0 71)">
				<stop  offset="0" style="stop-color:#5FABF7"/>
				<stop  offset="1" style="stop-color:#2063BA"/>
			</linearGradient>
			<path style="fill:url(#SVGID_00000098925987832892611870000017160774970843739810_);" d="M10.8,62.6c-0.7-0.3-1.1-1.1-1.1-1.9
				V42.6c0-2.1-0.7-4-1.9-5.6h-7.9v1c0,1.2,0.7,2.3,1.7,2.9c0.5,0.3,0.9,0.8,0.9,1.7v18.1c0,4.4,3.1,8.1,7.2,9.1
				c1.1,0.2,2-0.6,2-1.7V64C11.7,63.4,11.3,62.9,10.8,62.6z"/>
		</g>
		<g>
			
				<linearGradient id="SVGID_00000039125631799071176600000008147344663216026761_" gradientUnits="userSpaceOnUse" x1="-68.3112" y1="29.7851" x2="-68.3112" y2="60.6867" gradientTransform="matrix(-1 0 0 -1 7.7115 71)">
				<stop  offset="0" style="stop-color:#7EB7F7"/>
				<stop  offset="1" style="stop-color:#2E8FFF"/>
			</linearGradient>
			<path style="fill:url(#SVGID_00000039125631799071176600000008147344663216026761_);" d="M72.2,13c0-0.8-0.5-1.5-1.1-1.9
				c-0.6-0.3-1-0.8-1-1.5V5.5c0-1.1,1-1.9,2-1.7c4.1,0.9,7.2,4.6,7.2,9.1V31c0,0.7,0.4,1.2,0.9,1.5c1,0.7,1.7,1.8,1.7,3.1v2.3
				c0,1.2-0.7,2.3-1.7,2.9c-0.5,0.3-0.9,0.8-0.9,1.7v18.1c0,4.4-3.1,8.1-7.2,9.1c-1.1,0.2-2-0.6-2-1.7v-4.1c0-0.6,0.4-1.2,1-1.5
				c0.7-0.3,1.1-1.1,1.1-1.9V42.6c0-2.1,0.7-4.1,2-5.7c-1.2-1.6-2-3.5-2-5.7V13z"/>
			
				<linearGradient id="SVGID_00000086653289684303678680000012253593631453312176_" gradientUnits="userSpaceOnUse" x1="-68.4035" y1="13.9414" x2="-68.4035" y2="49.6837" gradientTransform="matrix(-1 0 0 -1 7.7115 71)">
				<stop  offset="0" style="stop-color:#5FABF7"/>
				<stop  offset="1" style="stop-color:#2063BA"/>
			</linearGradient>
			<path style="fill:url(#SVGID_00000086653289684303678680000012253593631453312176_);" d="M71.1,62.6c0.7-0.3,1.1-1.1,1.1-1.9
				V42.6c0-2.1,0.7-4,1.9-5.6H82v1c0,1.2-0.7,2.3-1.7,2.9c-0.5,0.3-0.9,0.8-0.9,1.7v18.1c0,4.4-3.1,8.1-7.2,9.1
				c-1.1,0.2-2-0.6-2-1.7V64C70.1,63.4,70.5,62.9,71.1,62.6z"/>
		</g>
	</g>
</g>
</svg>
