<svg width="295" height="201" viewBox="0 0 295 201" fill="none" xmlns="http://www.w3.org/2000/svg">
<mask id="mask0_111638_6903" style="mask-type:luminance" maskUnits="userSpaceOnUse" x="7" y="53" width="271" height="148">
<path d="M277.149 53.689H7.53711V200.447H277.149V53.689Z" fill="white"/>
</mask>
<g mask="url(#mask0_111638_6903)">
<path d="M277.15 160.995C277.165 162.195 276.942 163.386 276.493 164.5C276.044 165.613 275.378 166.626 274.534 167.48C273.69 168.334 272.685 169.012 271.577 169.474C270.469 169.937 269.28 170.175 268.08 170.175H203.298C204.239 171.895 204.598 173.873 204.32 175.814C204.042 177.755 203.142 179.553 201.756 180.94C201.227 181.467 200.636 181.928 199.997 182.314H211.964C216.97 182.314 221.207 186.264 221.271 191.262C221.286 192.462 221.062 193.653 220.613 194.767C220.163 195.88 219.498 196.893 218.654 197.747C217.811 198.601 216.806 199.279 215.698 199.742C214.59 200.206 213.402 200.445 212.201 200.445H152.715C150.73 200.445 148.799 199.794 147.22 198.591C145.641 197.389 144.5 195.702 143.972 193.789C143.444 191.876 143.558 189.843 144.297 188.001C145.037 186.159 146.36 184.611 148.064 183.593H112.429C107.423 183.593 103.187 179.643 103.122 174.645C103.101 173.026 103.514 171.432 104.318 170.027C105.122 168.622 106.288 167.457 107.694 166.655C106.221 165.891 104.986 164.736 104.124 163.318C103.262 161.9 102.807 160.272 102.807 158.613V147.51C102.806 146.092 103.137 144.694 103.776 143.428C104.414 142.162 105.341 141.064 106.482 140.221H42.4445C37.4436 140.221 33.212 136.281 33.1377 131.288C33.1199 130.086 33.3414 128.892 33.7894 127.777C34.2374 126.661 34.9029 125.646 35.7471 124.79C36.5914 123.934 37.5976 123.254 38.7071 122.79C39.8166 122.327 41.0073 122.088 42.2099 122.089H46.7358C48.5941 122.089 50.3764 121.351 51.6904 120.038C53.0045 118.724 53.7427 116.943 53.7427 115.085V115.08C53.7427 113.222 53.0045 111.441 51.6904 110.127C50.3764 108.814 48.5941 108.076 46.7358 108.076H16.6087C14.2038 108.076 11.8974 107.121 10.1969 105.421C8.49636 103.721 7.54102 101.415 7.54102 99.0115C7.54102 96.6076 8.49636 94.3021 10.1969 92.6022C11.8974 90.9024 14.2038 89.9474 16.6087 89.9474H60.1683C62.5732 89.948 64.8798 88.9937 66.5808 87.2943C68.2818 85.5948 69.2377 83.2896 69.2383 80.8857C69.2389 78.4817 68.2842 76.176 66.5841 74.4757C64.884 72.7754 62.5779 71.8198 60.173 71.8192H47.7313C42.7206 71.8192 38.4837 67.8596 38.4298 62.8514C38.4167 61.6527 38.6417 60.4633 39.0917 59.352C39.5416 58.2408 40.2077 57.2299 41.0512 56.3777C41.8947 55.5256 42.8989 54.8491 44.0058 54.3876C45.1126 53.9261 46.3 53.6886 47.4993 53.689H130.233C135.105 53.689 139.288 57.4369 139.523 62.3071C139.603 63.914 139.255 65.5132 138.513 66.9413H245.215C247.62 66.9413 249.926 67.8962 251.627 69.5961C253.327 71.2959 254.283 73.6014 254.283 76.0054C254.283 78.4093 253.327 80.7148 251.627 82.4146C249.926 84.1145 247.62 85.0694 245.215 85.0694H205.692C205.69 87.0199 204.915 88.89 203.535 90.2694C202.156 91.6488 200.285 92.4249 198.334 92.4274H153.784C155.104 93.6733 156.02 95.2867 156.412 97.0587C156.804 98.8307 156.655 100.68 155.984 102.366C155.313 104.052 154.151 105.498 152.648 106.517C151.145 107.535 149.371 108.079 147.556 108.078H135.099C134.609 108.077 134.123 108.173 133.67 108.36C133.216 108.547 132.805 108.822 132.457 109.168C132.11 109.514 131.835 109.926 131.647 110.378C131.459 110.831 131.362 111.316 131.362 111.806V111.812C131.362 112.302 131.459 112.787 131.647 113.24C131.835 113.693 132.11 114.104 132.457 114.45C132.805 114.796 133.216 115.071 133.67 115.258C134.123 115.445 134.609 115.541 135.099 115.54H236.213C238.618 115.54 240.925 116.495 242.625 118.195C244.326 119.895 245.281 122.2 245.281 124.604C245.281 127.008 244.326 129.313 242.625 131.013C240.925 132.713 238.618 133.668 236.213 133.668H210.064C211.39 134.479 212.486 135.617 213.246 136.972C214.006 138.328 214.405 139.856 214.405 141.41V143.995C214.406 145.658 213.948 147.29 213.082 148.71C212.217 150.131 210.977 151.285 209.498 152.047H267.843C272.848 152.047 277.085 155.997 277.15 160.996" fill="#F4F6F8"/>
</g>
<path d="M221.771 54.3809V65.5439" stroke="#858EAD" stroke-width="2" stroke-miterlimit="10" stroke-linecap="round"/>
<path d="M216.188 59.9624H227.355" stroke="#858EAD" stroke-width="2" stroke-miterlimit="10" stroke-linecap="round"/>
<path d="M79.75 1V10.8597" stroke="#858EAD" stroke-width="2" stroke-miterlimit="10" stroke-linecap="round"/>
<path d="M74.8184 5.92969H84.682" stroke="#858EAD" stroke-width="2" stroke-miterlimit="10" stroke-linecap="round"/>
<path d="M262.287 9.95746C262.287 11.2549 261.902 12.5233 261.181 13.6021C260.46 14.6808 259.435 15.5217 258.236 16.0182C257.037 16.5146 255.717 16.6445 254.444 16.3914C253.171 16.1382 252.002 15.5134 251.084 14.5959C250.166 13.6784 249.541 12.5095 249.288 11.2369C249.035 9.96438 249.165 8.64537 249.662 7.4467C250.159 6.24802 251 5.22353 252.079 4.50277C253.158 3.78201 254.427 3.39736 255.725 3.39746C256.587 3.39746 257.44 3.56714 258.237 3.89682C259.033 4.2265 259.756 4.70971 260.366 5.31887C260.975 5.92803 261.458 6.6512 261.788 7.4471C262.118 8.24299 262.287 9.09601 262.287 9.95746Z" stroke="#858EAD" stroke-width="2" stroke-miterlimit="10"/>
<path d="M18.383 154.938C18.3835 156.235 17.9991 157.504 17.2783 158.583C16.5574 159.662 15.5327 160.503 14.3335 161C13.1344 161.497 11.8147 161.627 10.5415 161.375C9.26832 161.122 8.09873 160.497 7.18069 159.58C6.26266 158.662 5.63741 157.493 5.38404 156.221C5.13067 154.948 5.26055 153.629 5.75726 152.43C6.25398 151.231 7.0952 150.207 8.17454 149.486C9.25388 148.765 10.5228 148.38 11.8209 148.38C13.5609 148.381 15.2296 149.071 16.4602 150.301C17.6907 151.531 18.3823 153.198 18.383 154.938Z" stroke="#858EAD" stroke-width="2" stroke-miterlimit="10"/>
<path d="M283.956 141.222C283.956 141.85 283.77 142.464 283.421 142.986C283.072 143.508 282.576 143.915 281.995 144.155C281.415 144.395 280.776 144.458 280.16 144.336C279.544 144.213 278.978 143.911 278.534 143.467C278.09 143.023 277.787 142.457 277.665 141.841C277.542 141.225 277.605 140.587 277.845 140.007C278.086 139.427 278.493 138.931 279.015 138.582C279.537 138.233 280.151 138.046 280.779 138.046C281.622 138.046 282.43 138.381 283.026 138.977C283.622 139.572 283.956 140.38 283.956 141.222Z" stroke="#858EAD" stroke-width="2" stroke-miterlimit="10"/>
<path d="M41.3432 128.452C41.3431 129.08 41.1567 129.693 40.8076 130.215C40.4585 130.738 39.9624 131.144 39.382 131.385C38.8016 131.625 38.163 131.688 37.5469 131.565C36.9307 131.443 36.3648 131.14 35.9206 130.696C35.4764 130.252 35.1739 129.687 35.0513 129.071C34.9287 128.455 34.9916 127.816 35.2319 127.236C35.4723 126.656 35.8793 126.16 36.4016 125.811C36.9239 125.462 37.538 125.276 38.1662 125.276C39.0088 125.276 39.8168 125.61 40.4126 126.206C41.0084 126.802 41.3432 127.609 41.3432 128.452Z" stroke="#858EAD" stroke-width="2" stroke-miterlimit="10"/>
<path d="M117.752 126.636C119.017 126.769 120.151 125.853 120.284 124.588C120.418 123.324 119.501 122.19 118.236 122.057C116.971 121.924 115.837 122.84 115.704 124.105C115.57 125.369 116.487 126.503 117.752 126.636Z" fill="url(#paint0_linear_111638_6903)"/>
<path d="M93.1269 175.394C90.3784 175.391 87.7081 174.479 85.5326 172.8C83.3572 171.121 81.7989 168.77 81.101 166.112L67.7765 115.371L64.1728 101.617L61.7998 92.5899C60.9606 89.4005 61.4233 86.0084 63.086 83.1599C64.7487 80.3114 67.4752 78.2398 70.6659 77.4008L139.613 59.311C139.754 60.7075 139.968 62.0956 140.253 63.4699C141.3 68.4449 144.301 73.2731 146.951 77.5326C147.41 78.2699 147.855 78.9853 148.276 79.6805C150.076 82.642 151.275 84.9606 151.275 86.6566C151.275 88.4725 150.301 90.6853 149.269 93.0273L148.93 93.7993C147.31 97.5255 146.012 101.111 147.911 104.04C148.776 105.372 149.676 106.546 150.471 107.581C152.618 110.383 154.312 112.593 153.969 116.004C153.8 117.402 153.522 118.784 153.139 120.138C152.375 123.11 151.653 125.914 153.818 128.803C154.951 130.192 156.261 131.428 157.715 132.478C159.97 134.249 161.751 135.647 161.333 138.019C160.893 139.887 160.27 141.707 159.473 143.453C158.2 146.555 156.758 150.071 156.908 153.305C156.975 154.752 157.144 156.601 157.423 158.946L96.2951 174.983C95.2616 175.255 94.1976 175.393 93.129 175.394" fill="#F4F6F8"/>
<path d="M93.1269 175.394C90.3784 175.391 87.7081 174.479 85.5326 172.8C83.3572 171.121 81.7989 168.77 81.101 166.112L67.7765 115.371L64.1728 101.617L61.7998 92.5899C60.9606 89.4005 61.4233 86.0084 63.086 83.1599C64.7487 80.3114 67.4752 78.2398 70.6659 77.4008L139.613 59.311C139.754 60.7075 139.968 62.0956 140.253 63.4699C141.3 68.4449 144.301 73.2731 146.951 77.5326C147.41 78.2699 147.855 78.9853 148.276 79.6805C150.076 82.642 151.275 84.9606 151.275 86.6566C151.275 88.4725 150.301 90.6853 149.269 93.0273L148.93 93.7993C147.31 97.5255 146.012 101.111 147.911 104.04C148.776 105.372 149.676 106.546 150.471 107.581C152.618 110.383 154.312 112.593 153.969 116.004C153.8 117.402 153.522 118.784 153.139 120.138C152.375 123.11 151.653 125.914 153.818 128.803C154.951 130.192 156.261 131.428 157.715 132.478C159.97 134.249 161.751 135.647 161.333 138.019C160.893 139.887 160.27 141.707 159.473 143.453C158.2 146.555 156.758 150.071 156.908 153.305C156.975 154.752 157.144 156.601 157.423 158.946L96.2951 174.983C95.2616 175.255 94.1976 175.393 93.129 175.394" stroke="#858EAD" stroke-width="2"/>
<path d="M64.2773 102.047L148.449 79.9639C150.154 82.7899 151.278 85.0156 151.278 86.6567C151.278 88.4726 150.303 90.6853 149.271 93.0283L149.019 93.6027L67.664 114.942L64.2773 102.047Z" fill="#7B8EC8" stroke="#858EAD" stroke-width="2"/>
<path d="M120.97 118.958L84.9102 128.418L88.2408 141.103L124.3 131.643L120.97 118.958Z" fill="#7B8EC8" stroke="#858EAD" stroke-width="2"/>
<path d="M110.86 157.517L95.1113 161.649L95.7572 164.109L111.506 159.976L110.86 157.517Z" fill="#7B8EC8" stroke="#858EAD"/>
<path d="M110.543 158.058L110.964 159.662L96.0719 163.569L95.6515 161.966L110.543 158.058ZM111.175 156.978L94.5703 161.336L95.4407 164.651L112.045 160.293L111.175 156.978Z" stroke="#858EAD"/>
<path d="M135.713 150.739L119.969 154.873L120.615 157.332L136.36 153.198L135.713 150.739Z" fill="#7B8EC8" stroke="#858EAD" stroke-width="0.999802"/>
<path d="M135.401 151.281L135.821 152.885L120.929 156.792L120.509 155.189L135.401 151.281ZM136.032 150.201L119.428 154.559L120.298 157.874L136.902 153.516L136.032 150.201Z" stroke="#858EAD"/>
<path d="M245.046 195.942C244.718 195.942 244.387 195.929 244.053 195.903L167.311 189.838C167.803 187.615 168.24 185.872 168.64 184.525C169.508 181.61 171.959 178.844 174.121 176.402C175.493 174.97 176.718 173.404 177.778 171.729C179.213 169.163 177.731 166.847 176.161 164.394C175.175 162.991 174.377 161.464 173.789 159.853C172.825 156.817 174.248 154.681 175.895 152.206C176.73 151.017 177.47 149.765 178.109 148.461C179.707 145.034 178.786 142.24 177.62 138.704C177.197 137.42 176.758 136.093 176.388 134.585C175.664 131.619 177.928 128.861 180.515 126.061L181.079 125.454C182.896 123.508 184.609 121.671 185.266 119.779C185.896 117.978 185.541 115.363 184.762 111.73C184.593 110.931 184.407 110.103 184.216 109.252C183.134 104.43 181.91 98.9664 182.54 94.0791C182.727 92.6728 182.988 91.2775 183.323 89.8989L252.001 95.3268C255.289 95.5914 258.338 97.1482 260.479 99.6562C262.621 102.164 263.68 105.418 263.425 108.706L257.436 184.484C257.177 187.596 255.761 190.498 253.468 192.619C251.175 194.74 248.17 195.925 245.046 195.941" fill="#F4F6F8"/>
<path d="M245.046 195.942C244.718 195.942 244.387 195.929 244.053 195.903L167.311 189.838C167.803 187.615 168.24 185.872 168.64 184.525C169.508 181.61 171.959 178.844 174.121 176.402C175.493 174.97 176.718 173.404 177.778 171.729C179.213 169.163 177.731 166.847 176.161 164.394C175.175 162.991 174.377 161.464 173.789 159.853C172.825 156.817 174.248 154.681 175.895 152.206C176.73 151.017 177.47 149.765 178.109 148.461C179.707 145.034 178.786 142.24 177.62 138.704C177.197 137.42 176.758 136.093 176.388 134.585C175.664 131.619 177.928 128.861 180.515 126.061L181.079 125.454C182.896 123.508 184.609 121.671 185.266 119.779C185.896 117.978 185.541 115.363 184.762 111.73C184.593 110.931 184.407 110.103 184.216 109.252C183.134 104.43 181.91 98.9664 182.54 94.0791C182.727 92.6728 182.988 91.2775 183.323 89.8989L252.001 95.3269C255.289 95.5914 258.338 97.1482 260.479 99.6562C262.621 102.164 263.68 105.418 263.425 108.706L257.436 184.484C257.177 187.596 255.761 190.498 253.468 192.619C251.175 194.74 248.17 195.925 245.046 195.941" stroke="#858EAD" stroke-width="2"/>
<path d="M181.137 125.392C182.929 123.47 184.614 121.651 185.266 119.78C185.862 118.074 185.578 115.643 184.885 112.309L262.655 118.451L261.602 131.753L181.137 125.392Z" fill="#7B8EC8" stroke="#858EAD" stroke-width="2"/>
<path d="M242.398 160.493C241.09 160.493 239.812 160.105 238.724 159.378C237.637 158.652 236.789 157.619 236.288 156.411C235.788 155.204 235.657 153.874 235.912 152.592C236.167 151.31 236.797 150.132 237.722 149.207C238.647 148.283 239.825 147.653 241.108 147.398C242.391 147.143 243.721 147.274 244.929 147.774C246.138 148.274 247.171 149.122 247.897 150.209C248.624 151.296 249.012 152.574 249.012 153.881C249.01 155.634 248.313 157.315 247.073 158.554C245.833 159.794 244.152 160.491 242.398 160.493Z" fill="#7B8EC8" stroke="#858EAD" stroke-width="2"/>
<path d="M231.338 159.458C230.03 159.457 228.751 159.07 227.664 158.343C226.576 157.617 225.728 156.584 225.228 155.376C224.727 154.168 224.597 152.839 224.852 151.557C225.107 150.275 225.737 149.097 226.662 148.172C227.587 147.248 228.765 146.618 230.048 146.363C231.331 146.108 232.66 146.239 233.869 146.739C235.077 147.239 236.11 148.087 236.837 149.174C237.564 150.261 237.951 151.539 237.952 152.846C237.95 154.599 237.252 156.279 236.012 157.519C234.772 158.758 233.091 159.455 231.338 159.458Z" fill="#7B8EC8" stroke="#858EAD" stroke-width="2"/>
<path d="M253.454 107.202C253.094 107.202 252.739 107.107 252.427 106.927C252.115 106.747 251.856 106.488 251.676 106.176C251.495 105.864 251.4 105.51 251.4 105.149C251.4 104.789 251.495 104.435 251.675 104.123L270.95 70.7507C271.13 70.4386 271.39 70.1794 271.702 69.9992C272.014 69.819 272.368 69.7241 272.729 69.7241C273.089 69.7241 273.444 69.819 273.756 69.9992C274.068 70.1794 274.327 70.4386 274.508 70.7507L293.783 104.123C293.963 104.435 294.058 104.789 294.058 105.15C294.058 105.51 293.963 105.864 293.782 106.176C293.602 106.488 293.343 106.747 293.03 106.927C292.718 107.107 292.364 107.202 292.003 107.202H253.454Z" fill="url(#paint1_linear_111638_6903)" stroke="#858EAD"/>
<path d="M272.729 70.1649C273.012 70.1632 273.29 70.2368 273.536 70.3783C273.781 70.5198 273.984 70.7241 274.124 70.9701L283.761 87.6555L293.399 104.342C293.541 104.587 293.616 104.864 293.616 105.147C293.616 105.43 293.542 105.708 293.4 105.953C293.259 106.198 293.055 106.401 292.81 106.542C292.565 106.684 292.287 106.758 292.004 106.757H253.455C253.172 106.758 252.894 106.684 252.648 106.543C252.403 106.401 252.199 106.198 252.058 105.953C251.916 105.708 251.842 105.43 251.842 105.147C251.842 104.864 251.917 104.587 252.059 104.342L261.697 87.6555L271.334 70.9701C271.474 70.7241 271.677 70.5198 271.922 70.3783C272.168 70.2368 272.446 70.1632 272.73 70.1649M272.73 69.2798C272.291 69.2774 271.859 69.3917 271.479 69.6109C271.099 69.8302 270.785 70.1466 270.567 70.5276L260.929 87.2155L251.292 103.902C251.072 104.281 250.957 104.712 250.957 105.15C250.957 105.588 251.073 106.018 251.292 106.398C251.511 106.777 251.826 107.092 252.206 107.311C252.586 107.53 253.017 107.645 253.455 107.645H292.003C292.441 107.645 292.872 107.53 293.252 107.311C293.631 107.092 293.946 106.777 294.166 106.397C294.385 106.018 294.5 105.588 294.5 105.15C294.5 104.712 294.385 104.281 294.166 103.902L284.528 87.2155L274.891 70.5281C274.674 70.1471 274.359 69.8307 273.979 69.6115C273.599 69.3922 273.167 69.2779 272.729 69.2803" stroke="#858EAD"/>
<path d="M57.3281 59.3701L63.0665 69.0835" stroke="#858EAD"/>
<path d="M57.3281 59.3701L63.0665 69.0835" stroke="#858EAD" stroke-width="2" stroke-miterlimit="10" stroke-linecap="round"/>
<path d="M44.8027 74.8027L55.5472 78.2519" stroke="#858EAD"/>
<path d="M44.8027 74.8027L55.5472 78.2519" stroke="#858EAD" stroke-width="2" stroke-miterlimit="10" stroke-linecap="round"/>
<path d="M45.6973 94.6545L56.0202 90.0967" stroke="#858EAD"/>
<path d="M45.6973 94.6545L56.0202 90.0967" stroke="#858EAD" stroke-width="2" stroke-miterlimit="10" stroke-linecap="round"/>
<path d="M272.726 102.328C273.471 102.328 274.076 101.724 274.076 100.978C274.076 100.233 273.471 99.6284 272.726 99.6284C271.98 99.6284 271.375 100.233 271.375 100.978C271.375 101.724 271.98 102.328 272.726 102.328Z" fill="white"/>
<path d="M274.076 80.0565C274.076 79.3109 273.471 78.7065 272.725 78.7065C271.98 78.7065 271.375 79.3109 271.375 80.0565V95.5787C271.375 96.3242 271.98 96.9286 272.725 96.9286C273.471 96.9286 274.076 96.3242 274.076 95.5787V80.0565Z" fill="white"/>
<defs>
<linearGradient id="paint0_linear_111638_6903" x1="115.27" y1="121.744" x2="120.711" y2="122.63" gradientUnits="userSpaceOnUse">
<stop stop-color="#FF7000"/>
<stop offset="0.9999" stop-color="#E2985E"/>
<stop offset="1" stop-color="#E2995F"/>
</linearGradient>
<linearGradient id="paint1_linear_111638_6903" x1="245.113" y1="69.7241" x2="296.04" y2="72.9853" gradientUnits="userSpaceOnUse">
<stop stop-color="#FF7000"/>
<stop offset="0.9999" stop-color="#E2985E"/>
<stop offset="1" stop-color="#E2995F"/>
</linearGradient>
</defs>
</svg>
