<?xml version="1.0" encoding="utf-8"?>
<!-- Generator: Adobe Illustrator 26.0.1, SVG Export Plug-In . SVG Version: 6.00 Build 0)  -->
<svg version="1.1" id="Layer_1" xmlns="http://www.w3.org/2000/svg" xmlns:xlink="http://www.w3.org/1999/xlink" x="0px" y="0px"
	 viewBox="0 0 140.2 86.3" style="enable-background:new 0 0 140.2 86.3;" xml:space="preserve">
<style type="text/css">
	.st0{fill:url(#SVGID_1_);}
	.st1{fill:url(#SVGID_00000122684352596185387340000007374566562309423517_);}
	.st2{fill:url(#SVGID_00000023987687850723833070000012160175962858967219_);}
	.st3{fill:url(#SVGID_00000090294136905272461880000009771286260323146894_);}
	.st4{fill:url(#SVGID_00000070818501217155388230000016877971962943560613_);}
	.st5{fill:url(#SVGID_00000065037752115409546620000008416042225262660523_);}
	.st6{fill:url(#SVGID_00000048489497043865443080000011395334648907559298_);}
	.st7{fill:url(#SVGID_00000063599572631113884590000008815335125254775461_);}
	.st8{fill:url(#SVGID_00000046314028493200927360000009790250508436907152_);}
	.st9{fill:url(#SVGID_00000004530936636328902930000016480815459278731659_);}
	.st10{fill:url(#SVGID_00000068651087670533719940000006598682732514646163_);}
	.st11{fill:url(#SVGID_00000024714677709505494430000006722180854450655639_);}
</style>
<g id="BACKGROUND">
</g>
<g id="OBJECTS">
	<g>
		
			<linearGradient id="SVGID_1_" gradientUnits="userSpaceOnUse" x1="76.5717" y1="25.373" x2="35.3312" y2="66.6134" gradientTransform="matrix(1 0 0 -1 0 87.4894)">
			<stop  offset="0" style="stop-color:#83CBF7;stop-opacity:0"/>
			<stop  offset="1" style="stop-color:#83CBF7"/>
		</linearGradient>
		<polygon class="st0" points="50.9,54.6 69.1,36.5 104.7,72 79.2,82.8 		"/>
		
			<linearGradient id="SVGID_00000147941601705688335610000002019181665276895668_" gradientUnits="userSpaceOnUse" x1="94.5879" y1="7.7068" x2="52.656" y2="49.6387" gradientTransform="matrix(1 0 0 -1 0 87.4894)">
			<stop  offset="0" style="stop-color:#83CBF7;stop-opacity:0"/>
			<stop  offset="1" style="stop-color:#83CBF7"/>
		</linearGradient>
		<polygon style="fill:url(#SVGID_00000147941601705688335610000002019181665276895668_);" points="74,66.6 81.4,59.2 117.7,95.4 
			102.9,95.4 		"/>
		
			<linearGradient id="SVGID_00000162349186768902931940000006958557677462781068_" gradientUnits="userSpaceOnUse" x1="101.1734" y1="45.5213" x2="53.9049" y2="92.7898" gradientTransform="matrix(1 0 0 -1 0 87.4894)">
			<stop  offset="0" style="stop-color:#83CBF7;stop-opacity:0"/>
			<stop  offset="1" style="stop-color:#83CBF7"/>
		</linearGradient>
		<polygon style="fill:url(#SVGID_00000162349186768902931940000006958557677462781068_);" points="68.5,30.9 90,9.1 176.3,95.5 
			133.1,95.5 		"/>
		
			<linearGradient id="SVGID_00000110468098394792408650000004014337837540501682_" gradientUnits="userSpaceOnUse" x1="63.4422" y1="17.7525" x2="-32.3853" y2="113.58" gradientTransform="matrix(1 0 0 -1 0 87.4894)">
			<stop  offset="0" style="stop-color:#83CBF7;stop-opacity:0"/>
			<stop  offset="1" style="stop-color:#83CBF7"/>
		</linearGradient>
		<polygon style="fill:url(#SVGID_00000110468098394792408650000004014337837540501682_);" points="40.8,12.6 36.3,17.9 34.2,52.6 
			35.2,75.9 54.7,95.4 123.6,95.4 		"/>
		
			<linearGradient id="SVGID_00000057121108163108348540000002577056761293866908_" gradientUnits="userSpaceOnUse" x1="126.128" y1="18.4667" x2="30.7065" y2="113.8881" gradientTransform="matrix(1 0 0 -1 0 87.4894)">
			<stop  offset="0" style="stop-color:#83CBF7;stop-opacity:0"/>
			<stop  offset="1" style="stop-color:#83CBF7"/>
		</linearGradient>
		<polygon style="fill:url(#SVGID_00000057121108163108348540000002577056761293866908_);" points="106.4,14.8 99.7,17.9 
			105.7,23.2 105.2,59.9 100.3,77.6 118.1,95.4 187,95.4 		"/>
		<g>
			<g>
				
					<linearGradient id="SVGID_00000007409635319676488860000012033821494894906752_" gradientUnits="userSpaceOnUse" x1="65.7395" y1="30.509" x2="32.2811" y2="96.886" gradientTransform="matrix(1 0 0 -1 0 87.4894)">
					<stop  offset="0" style="stop-color:#2E8FFF"/>
					<stop  offset="1" style="stop-color:#3C5BBA"/>
				</linearGradient>
				<path style="fill:url(#SVGID_00000007409635319676488860000012033821494894906752_);" d="M67,35.5H52.9c-1.6,0-2.9,1.3-2.9,2.9
					v14.1c0,1.6,1.3,2.9,2.9,2.9H67c1.6,0,2.9-1.3,2.9-2.9V38.4C69.9,36.8,68.6,35.5,67,35.5z"/>
				
					<linearGradient id="SVGID_00000000925816236662438030000006666600772742708647_" gradientUnits="userSpaceOnUse" x1="72.8357" y1="34.0861" x2="39.3772" y2="100.4634" gradientTransform="matrix(1 0 0 -1 0 87.4894)">
					<stop  offset="0" style="stop-color:#2E8FFF"/>
					<stop  offset="1" style="stop-color:#3C5BBA"/>
				</linearGradient>
				<path style="fill:url(#SVGID_00000000925816236662438030000006666600772742708647_);" d="M80.5,58.8h-5.8
					c-0.6,0-1.2,0.5-1.2,1.2v5.7c0,0.6,0.5,1.2,1.2,1.2h5.8c0.6,0,1.2-0.5,1.2-1.2v-5.8C81.7,59.3,81.2,58.8,80.5,58.8z"/>
				
					<linearGradient id="SVGID_00000075856266530748684190000012921574812841261757_" gradientUnits="userSpaceOnUse" x1="91.3131" y1="43.3997" x2="57.8547" y2="109.7769" gradientTransform="matrix(1 0 0 -1 0 87.4894)">
					<stop  offset="0" style="stop-color:#2E8FFF"/>
					<stop  offset="1" style="stop-color:#3C5BBA"/>
				</linearGradient>
				<path style="fill:url(#SVGID_00000075856266530748684190000012921574812841261757_);" d="M87.6,8.2H70.8c-1.9,0-3.4,1.5-3.4,3.4
					v16.9c0,1.9,1.5,3.4,3.4,3.4h16.9c1.9,0,3.4-1.5,3.4-3.4V11.6C91,9.7,89.5,8.2,87.6,8.2z"/>
			</g>
			<g>
				<g>
					
						<linearGradient id="SVGID_00000050660985561974070970000006472749583489247142_" gradientUnits="userSpaceOnUse" x1="35.4" y1="38.0298" x2="35.4" y2="68.9314" gradientTransform="matrix(1 0 0 -1 0 87.4894)">
						<stop  offset="0" style="stop-color:#7EB7F7"/>
						<stop  offset="1" style="stop-color:#2E8FFF"/>
					</linearGradient>
					<path style="fill:url(#SVGID_00000050660985561974070970000006472749583489247142_);" d="M39.2,21.2c0-0.8,0.5-1.5,1.1-1.9
						c0.6-0.3,1-0.8,1-1.5v-4.1c0-1.1-1-1.9-2-1.7c-4.1,0.9-7.2,4.6-7.2,9.1v18.1c0,0.7-0.4,1.2-0.9,1.5c-1,0.7-1.7,1.8-1.7,3.1v2.3
						c0,1.2,0.7,2.3,1.7,2.9c0.5,0.3,0.9,0.8,0.9,1.7v18.1c0,4.4,3.1,8.1,7.2,9.1c1.1,0.2,2-0.6,2-1.7v-4.1c0-0.6-0.4-1.2-1-1.5
						c-0.7-0.3-1.1-1.1-1.1-1.9V50.8c0-2.1-0.7-4.1-2-5.7c1.2-1.6,2-3.5,2-5.7V21.2z"/>
					
						<linearGradient id="SVGID_00000044899934246558561610000001958382382127471804_" gradientUnits="userSpaceOnUse" x1="35.4" y1="22.1861" x2="35.4" y2="57.9284" gradientTransform="matrix(1 0 0 -1 0 87.4894)">
						<stop  offset="0" style="stop-color:#5FABF7"/>
						<stop  offset="1" style="stop-color:#2063BA"/>
					</linearGradient>
					<path style="fill:url(#SVGID_00000044899934246558561610000001958382382127471804_);" d="M40.4,70.8c-0.7-0.3-1.1-1.1-1.1-1.9
						V50.8c0-2.1-0.7-4-1.9-5.6h-7.9v1c0,1.2,0.7,2.3,1.7,2.9c0.5,0.3,0.9,0.8,0.9,1.7v18.1c0,4.4,3.1,8.1,7.2,9.1
						c1.1,0.2,2-0.6,2-1.7v-4.1C41.3,71.6,40.9,71.1,40.4,70.8z"/>
				</g>
				<g>
					
						<linearGradient id="SVGID_00000082359076248114057780000009299102022895015820_" gradientUnits="userSpaceOnUse" x1="-38.7339" y1="38.0298" x2="-38.7339" y2="68.9314" gradientTransform="matrix(-1 0 0 -1 66.8661 87.4894)">
						<stop  offset="0" style="stop-color:#7EB7F7"/>
						<stop  offset="1" style="stop-color:#2E8FFF"/>
					</linearGradient>
					<path style="fill:url(#SVGID_00000082359076248114057780000009299102022895015820_);" d="M101.8,21.2c0-0.8-0.5-1.5-1.1-1.9
						c-0.6-0.3-1-0.8-1-1.5v-4.1c0-1.1,1-1.9,2-1.7c4.1,0.9,7.2,4.6,7.2,9.1v18.1c0,0.7,0.4,1.2,0.9,1.5c1,0.7,1.7,1.8,1.7,3.1v2.3
						c0,1.2-0.7,2.3-1.7,2.9c-0.5,0.3-0.9,0.8-0.9,1.7v18.1c0,4.4-3.1,8.1-7.2,9.1c-1.1,0.2-2-0.6-2-1.7v-4.1c0-0.6,0.4-1.2,1-1.5
						c0.7-0.3,1.1-1.1,1.1-1.9V50.8c0-2.1,0.7-4.1,2-5.7c-1.2-1.6-2-3.5-2-5.7V21.2z"/>
					
						<linearGradient id="SVGID_00000059285249328028629110000009981515014739922593_" gradientUnits="userSpaceOnUse" x1="-38.8263" y1="22.1861" x2="-38.8263" y2="57.9284" gradientTransform="matrix(-1 0 0 -1 66.8661 87.4894)">
						<stop  offset="0" style="stop-color:#5FABF7"/>
						<stop  offset="1" style="stop-color:#2063BA"/>
					</linearGradient>
					<path style="fill:url(#SVGID_00000059285249328028629110000009981515014739922593_);" d="M100.7,70.8c0.7-0.3,1.1-1.1,1.1-1.9
						V50.8c0-2.1,0.7-4,1.9-5.6h7.9v1c0,1.2-0.7,2.3-1.7,2.9c-0.5,0.3-0.9,0.8-0.9,1.7v18.1c0,4.4-3.1,8.1-7.2,9.1
						c-1.1,0.2-2-0.6-2-1.7v-4.1C99.7,71.6,100.1,71.1,100.7,70.8z"/>
				</g>
			</g>
		</g>
	</g>
</g>
</svg>
