<svg width="18" height="18" viewBox="0 0 18 18" fill="none" xmlns="http://www.w3.org/2000/svg">
<path d="M8.99935 5.45829C8.48158 5.45829 8.06185 5.87803 8.06185 6.39579C8.06185 6.74097 7.78203 7.02079 7.43685 7.02079C7.09167 7.02079 6.81185 6.74097 6.81185 6.39579C6.81185 5.18767 7.79123 4.20829 8.99935 4.20829C10.2075 4.20829 11.1868 5.18767 11.1868 6.39579C11.1868 7.19857 10.7541 7.8996 10.1121 8.27943C9.94811 8.37643 9.81276 8.48235 9.72458 8.58627C9.63897 8.68715 9.62435 8.75296 9.62435 8.79163V9.83329C9.62435 10.1785 9.34453 10.4583 8.99935 10.4583C8.65417 10.4583 8.37435 10.1785 8.37435 9.83329V8.79163C8.37435 8.37005 8.55891 8.02799 8.77151 7.77747C8.98154 7.52998 9.24343 7.34096 9.47557 7.20362C9.75305 7.03945 9.93685 6.73875 9.93685 6.39579C9.93685 5.87803 9.51712 5.45829 8.99935 5.45829Z" fill="url(#paint0_linear_142797_4750)"/>
<path d="M8.99935 13.1666C9.45959 13.1666 9.83268 12.7935 9.83268 12.3333C9.83268 11.8731 9.45959 11.5 8.99935 11.5C8.53911 11.5 8.16602 11.8731 8.16602 12.3333C8.16602 12.7935 8.53911 13.1666 8.99935 13.1666Z" fill="url(#paint1_linear_142797_4750)"/>
<path fill-rule="evenodd" clip-rule="evenodd" d="M8.95153 0.0416261H9.04716C10.9708 0.0416158 12.4784 0.0416076 13.6546 0.199749C14.8585 0.361615 15.8086 0.699399 16.5542 1.44507C17.2999 2.19075 17.6377 3.14077 17.7996 4.34471C17.9577 5.52095 17.9577 7.02849 17.9577 8.95215V9.04777C17.9577 10.9714 17.9577 12.479 17.7996 13.6552C17.6377 14.8592 17.2999 15.8092 16.5542 16.5548C15.8086 17.3005 14.8585 17.6383 13.6546 17.8002C12.4784 17.9583 10.9708 17.9583 9.04716 17.9583H8.95154C7.02788 17.9583 5.52034 17.9583 4.3441 17.8002C3.14016 17.6383 2.19014 17.3005 1.44446 16.5548C0.698788 15.8092 0.361005 14.8592 0.199138 13.6552C0.0409973 12.479 0.0410054 10.9714 0.0410158 9.04779V8.95214C0.0410054 7.02849 0.0409973 5.52095 0.199138 4.34471C0.361005 3.14077 0.698788 2.19075 1.44446 1.44507C2.19014 0.699399 3.14016 0.361615 4.3441 0.199749C5.52034 0.0416076 7.02788 0.0416158 8.95153 0.0416261ZM4.51066 1.4386C3.44533 1.58183 2.80306 1.85424 2.32835 2.32896C1.85363 2.80367 1.58122 3.44594 1.43799 4.51127C1.29234 5.59459 1.29102 7.01811 1.29102 8.99996C1.29102 10.9818 1.29234 12.4053 1.43799 13.4886C1.58122 14.554 1.85363 15.1962 2.32835 15.671C2.80306 16.1457 3.44533 16.4181 4.51066 16.5613C5.59398 16.707 7.01749 16.7083 8.99935 16.7083C10.9812 16.7083 12.4047 16.707 13.488 16.5613C14.5534 16.4181 15.1956 16.1457 15.6704 15.671C16.1451 15.1962 16.4175 14.554 16.5607 13.4886C16.7064 12.4053 16.7077 10.9818 16.7077 8.99996C16.7077 7.01811 16.7064 5.59459 16.5607 4.51127C16.4175 3.44594 16.1451 2.80367 15.6704 2.32896C15.1956 1.85424 14.5534 1.58183 13.488 1.4386C12.4047 1.29295 10.9812 1.29163 8.99935 1.29163C7.01749 1.29163 5.59398 1.29295 4.51066 1.4386Z" fill="url(#paint2_linear_142797_4750)"/>
<defs>
<linearGradient id="paint0_linear_142797_4750" x1="-2.59988" y1="0.04163" x2="18.8103" y2="1.24617" gradientUnits="userSpaceOnUse">
<stop stop-color="#FF7000"/>
<stop offset="0.9999" stop-color="#E2985E"/>
<stop offset="1" stop-color="#E2995F"/>
</linearGradient>
<linearGradient id="paint1_linear_142797_4750" x1="-2.59988" y1="0.04163" x2="18.8103" y2="1.24617" gradientUnits="userSpaceOnUse">
<stop stop-color="#FF7000"/>
<stop offset="0.9999" stop-color="#E2985E"/>
<stop offset="1" stop-color="#E2995F"/>
</linearGradient>
<linearGradient id="paint2_linear_142797_4750" x1="-2.59988" y1="0.04163" x2="18.8103" y2="1.24617" gradientUnits="userSpaceOnUse">
<stop stop-color="#FF7000"/>
<stop offset="0.9999" stop-color="#E2985E"/>
<stop offset="1" stop-color="#E2995F"/>
</linearGradient>
</defs>
</svg>
