<?xml version="1.0" encoding="utf-8"?>
<!-- Generator: Adobe Illustrator 26.0.1, SVG Export Plug-In . SVG Version: 6.00 Build 0)  -->
<svg version="1.1" id="Layer_1" xmlns="http://www.w3.org/2000/svg" xmlns:xlink="http://www.w3.org/1999/xlink" x="0px" y="0px"
	 viewBox="0 0 18 18" style="enable-background:new 0 0 18 18;" xml:space="preserve">
<style type="text/css">
	.st0{fill:url(#SVGID_1_);}
	.st1{fill:url(#SVGID_00000059270359127935995320000017175396753829150367_);}
	.st2{fill-rule:evenodd;clip-rule:evenodd;fill:url(#SVGID_00000158742853754174875050000011165309412231657635_);}
</style>
<linearGradient id="SVGID_1_" gradientUnits="userSpaceOnUse" x1="-2.9721" y1="13.3415" x2="18.438" y2="12.1369" gradientTransform="matrix(1 0 0 -1 0 20)">
	<stop  offset="1.065558e-08" style="stop-color:#0091FF"/>
	<stop  offset="1" style="stop-color:#5FAEE2"/>
</linearGradient>
<path class="st0" d="M9,5.5c-0.5,0-0.9,0.4-0.9,0.9C8.1,6.7,7.8,7,7.4,7S6.8,6.7,6.8,6.4c0-1.2,1-2.2,2.2-2.2c1.2,0,2.2,1,2.2,2.2
	c0,0.8-0.4,1.5-1.1,1.9C9.9,8.4,9.8,8.5,9.7,8.6C9.6,8.7,9.6,8.8,9.6,8.8v1c0,0.3-0.3,0.6-0.6,0.6c-0.3,0-0.6-0.3-0.6-0.6v-1
	c0-0.4,0.2-0.8,0.4-1C9,7.5,9.2,7.3,9.5,7.2C9.8,7,9.9,6.7,9.9,6.4C9.9,5.9,9.5,5.5,9,5.5z"/>
<linearGradient id="SVGID_00000065780272699649374880000009960842532981731746_" gradientUnits="userSpaceOnUse" x1="-3.2526" y1="8.356" x2="18.1576" y2="7.1515" gradientTransform="matrix(1 0 0 -1 0 20)">
	<stop  offset="1.065558e-08" style="stop-color:#0091FF"/>
	<stop  offset="1" style="stop-color:#5FAEE2"/>
</linearGradient>
<path style="fill:url(#SVGID_00000065780272699649374880000009960842532981731746_);" d="M9,13.2c0.5,0,0.8-0.4,0.8-0.8
	c0-0.5-0.4-0.8-0.8-0.8c-0.5,0-0.8,0.4-0.8,0.8C8.2,12.8,8.5,13.2,9,13.2z"/>
<linearGradient id="SVGID_00000163072924772594955960000002093004654168614273_" gradientUnits="userSpaceOnUse" x1="-3.0657" y1="11.6788" x2="18.3445" y2="10.4743" gradientTransform="matrix(1 0 0 -1 0 20)">
	<stop  offset="1.065558e-08" style="stop-color:#0091FF"/>
	<stop  offset="1" style="stop-color:#5FAEE2"/>
</linearGradient>
<path style="fill-rule:evenodd;clip-rule:evenodd;fill:url(#SVGID_00000163072924772594955960000002093004654168614273_);" d="M9,0
	L9,0c2,0,3.5,0,4.7,0.2c1.2,0.2,2.2,0.5,2.9,1.2c0.7,0.7,1.1,1.7,1.2,2.9C18,5.5,18,7,18,9V9c0,1.9,0,3.4-0.2,4.6
	c-0.2,1.2-0.5,2.2-1.2,2.9c-0.7,0.7-1.7,1.1-2.9,1.2C12.5,18,11,18,9,18H9c-1.9,0-3.4,0-4.6-0.2c-1.2-0.2-2.2-0.5-2.9-1.2
	c-0.7-0.7-1.1-1.7-1.2-2.9C0,12.5,0,11,0,9V9C0,7,0,5.5,0.2,4.3c0.2-1.2,0.5-2.2,1.2-2.9c0.7-0.7,1.7-1.1,2.9-1.2C5.5,0,7,0,9,0z
	 M4.5,1.4C3.4,1.6,2.8,1.9,2.3,2.3C1.9,2.8,1.6,3.4,1.4,4.5C1.3,5.6,1.3,7,1.3,9c0,2,0,3.4,0.1,4.5c0.1,1.1,0.4,1.7,0.9,2.2
	c0.5,0.5,1.1,0.7,2.2,0.9C5.6,16.7,7,16.7,9,16.7c2,0,3.4,0,4.5-0.1c1.1-0.1,1.7-0.4,2.2-0.9c0.5-0.5,0.7-1.1,0.9-2.2
	c0.1-1.1,0.1-2.5,0.1-4.5c0-2,0-3.4-0.1-4.5c-0.1-1.1-0.4-1.7-0.9-2.2c-0.5-0.5-1.1-0.7-2.2-0.9C12.4,1.3,11,1.3,9,1.3
	C7,1.3,5.6,1.3,4.5,1.4z"/>
</svg>
